<?xml version="1.0" encoding="utf-8"?>
<!-- Generator: Adobe Illustrator 18.0.0, SVG Export Plug-In . SVG Version: 6.00 Build 0)  -->
<!DOCTYPE svg PUBLIC "-//W3C//DTD SVG 1.1//EN" "http://www.w3.org/Graphics/SVG/1.1/DTD/svg11.dtd">
<svg version="1.1" id="Layer_1" xmlns="http://www.w3.org/2000/svg" xmlns:xlink="http://www.w3.org/1999/xlink" x="0px" y="0px"
	 viewBox="0 0 1080 50" enable-background="new 0 0 1080 50" xml:space="preserve">
<g>
	
		<image overflow="visible" width="165" height="107" xlink:href="E0E2250C.jpg"  transform="matrix(6.6739 0 0 -0.5425 -3.2137 54.2562)">
	</image>
</g>
<g>
	<g enable-background="new    ">
		<path fill="#FFFFFF" d="M442.2,165.7c-0.2-0.5-0.6-0.8-1.2-0.8c-0.5,0-0.9,0.2-1.1,0.5c-0.2,0.2-0.2,0.3-0.2,0.6
			c0,0.6,0.8,0.8,1.4,0.8c0.8,0.2,1.8,0.3,2.1,1.2c0,0.2,0,0.3,0,0.5c0,1.2-1.2,1.8-2.3,1.8c-0.9,0-2-0.6-2.1-1.7v-0.2h0.9v0.2l0,0
			c0,0.6,0.8,0.9,1.2,0.9c0.6,0,1.4-0.3,1.4-0.9v-0.2c-0.2-0.5-0.8-0.5-1.4-0.6c-0.9-0.2-2-0.3-2.1-1.5l0,0c0-0.5,0-0.8,0.3-1.1
			c0.5-0.5,1.1-0.8,1.8-0.8c0.9,0,1.8,0.5,2,1.5L442.2,165.7z"/>
		<path fill="#FFFFFF" d="M444.4,165.1c0.6-0.6,1.4-0.9,2.1-0.9c0.9,0,1.7,0.3,2.1,0.9c0.6,0.6,0.9,1.4,0.9,2.1
			c0,0.8-0.3,1.7-0.9,2.1c-0.6,0.6-1.4,0.9-2.1,0.9c-0.8,0-1.7-0.3-2.1-0.9c-0.6-0.6-0.9-1.4-0.9-2.1
			C443.5,166.4,443.8,165.5,444.4,165.1z M448.1,165.7c-0.5-0.5-0.9-0.6-1.5-0.6c-0.6,0-1.1,0.3-1.5,0.6c-0.5,0.5-0.6,0.9-0.6,1.5
			c0,0.6,0.3,1.2,0.6,1.5c0.5,0.5,0.9,0.6,1.5,0.6c0.6,0,1.2-0.3,1.5-0.6c0.5-0.5,0.6-0.9,0.6-1.5
			C448.7,166.6,448.4,166,448.1,165.7z"/>
		<path fill="#FFFFFF" d="M450.2,168.4v-4.1h0.9v4.1c0,0.6,0.8,0.9,1.4,0.9c0.6,0,1.4-0.3,1.4-0.9v-4.1h0.8v4.1
			c0,1.2-1.2,1.8-2.1,1.8C451.4,170.2,450.2,169.6,450.2,168.4z"/>
		<path fill="#FFFFFF" d="M455.9,170.2v-5.2h-1.8v-0.8h4.4v0.8h-1.8v5.2H455.9z"/>
		<path fill="#FFFFFF" d="M459.9,166.7h2.6v-2.6h0.9v5.9h-0.9v-2.6h-2.6v2.6H459v-5.9h0.9V166.7z"/>
		<path fill="#FFFFFF" d="M467,167.3c-0.3,0.9-0.8,2-1.1,2.9h-0.6l-2-5.9h0.9l1.4,4.2l0.9-2.7h0.8l0.9,2.7c0.5-1.4,0.9-2.9,1.4-4.2
			h0.9l-2,5.9h-0.6L467,167.3z"/>
		<path fill="#FFFFFF" d="M471.8,169.3h2.7v0.9h-3.6v-5.9h3.6v0.9h-2.7v1.5h2.7v0.9h-2.7V169.3z"/>
		<path fill="#FFFFFF" d="M478.2,165.7c-0.2-0.6-0.8-0.8-1.2-0.8c-0.5,0-0.9,0.2-1.1,0.5c-0.2,0.2-0.2,0.5-0.2,0.6
			c0,0.6,0.8,0.8,1.4,0.8c0.8,0.2,1.8,0.3,2.1,1.2c0,0.2,0,0.3,0,0.5c0,1.2-1.2,1.8-2.3,1.8c-0.9,0-2-0.6-2.1-1.7v-0.2h0.9v0.2l0,0
			c0,0.6,0.8,0.9,1.2,0.9c0.6,0,1.4-0.3,1.4-0.9v-0.2c-0.2-0.5-0.8-0.5-1.4-0.6c-0.9-0.2-2-0.3-2.1-1.5l0,0c0-0.5,0-0.8,0.3-1.1
			c0.5-0.5,1.1-0.8,1.8-0.8c0.9,0,1.8,0.5,2,1.5L478.2,165.7z"/>
		<path fill="#FFFFFF" d="M480.5,170.2v-5.2h-1.8v-0.8h4.4v0.8h-1.8v5.2H480.5z"/>
		<path fill="#FFFFFF" d="M487.2,165.1c0.5-0.6,1.2-0.9,2.1-0.9c1.4,0,2.4,0.9,2.7,2.1h-0.9c-0.3-0.9-1.1-1.4-2-1.4
			c-0.6,0-1.1,0.3-1.5,0.6c-0.5,0.3-0.6,0.9-0.6,1.5s0.3,1.1,0.6,1.5c0.3,0.5,0.9,0.6,1.5,0.6c0.9,0,1.7-0.5,2-1.4h0.9
			c-0.3,1.4-1.4,2.3-2.9,2.3c-0.8,0-1.5-0.3-2.1-0.9c-0.5-0.6-0.9-1.4-0.9-2.1C486.4,166.3,486.7,165.5,487.2,165.1z"/>
		<path fill="#FFFFFF" d="M495.8,168.4h-2.1c-0.3,0.6-0.5,1.2-0.8,1.8H492l2.4-6.1h0.6l2.4,6.1h-0.9L495.8,168.4z M494,167.5h1.5
			l-0.8-2.1L494,167.5z"/>
		<path fill="#FFFFFF" d="M498.8,167h1.1c0.8,0,1.1-0.5,1.1-1.1c0-0.5-0.3-1.1-1.1-1.1h-1.4v5h-0.9V164h2.1c1.4,0,2,0.9,2,1.8
			c0,0.9-0.5,1.7-1.5,1.8l1.8,2.3h-1.1l-2.1-2.6V167z"/>
		<path fill="#FFFFFF" d="M503.1,169.3h2.7v0.9h-3.6v-5.9h3.6v0.9h-2.7v1.5h2.7v0.9h-2.7V169.3z"/>
		<path fill="#FFFFFF" d="M507,169.3h2.7v0.9h-3.6v-5.9h3.6v0.9H507v1.5h2.7v0.9H507C507,167.6,507,169.3,507,169.3z"/>
		<path fill="#FFFFFF" d="M511.2,167h1.1c0.8,0,1.1-0.5,1.1-1.1c0-0.5-0.3-1.1-1.1-1.1h-1.4v5H510V164h2.1c1.4,0,2,0.9,2,1.8
			c0,0.9-0.5,1.7-1.5,1.8l1.8,2.3h-1.1l-2.1-2.6V167z"/>
		<path fill="#FFFFFF" d="M520.9,168.4h-2.1c-0.3,0.6-0.5,1.2-0.8,1.8h-0.9l2.4-6.1h0.6l2.4,6.1h-0.9L520.9,168.4z M519.1,167.5h1.5
			l-0.8-2.1L519.1,167.5z"/>
		<path fill="#FFFFFF" d="M522.8,170.1v-5.9h0.6l2.9,4.2v-4.2h0.9v5.9h-0.6l-2.9-4.1v4.1H522.8z"/>
		<path fill="#FFFFFF" d="M530.2,164.2c2,0,2.9,1.5,2.9,3s-0.9,3-2.9,3h-2.1v-5.9h2.1V164.2z M530.2,169.3c1.4,0,2.1-1.1,2.1-2.1
			s-0.8-2.1-2.1-2.1H529v4.2H530.2z"/>
		<path fill="#FFFFFF" d="M538.1,170.2v-5.2h-1.8v-0.9h4.4v0.9h-1.8v5.2H538.1z"/>
		<path fill="#FFFFFF" d="M541.8,169.3h2.7v0.9h-3.6v-5.9h3.6v0.9h-2.7v1.5h2.7v0.9h-2.7V169.3z"/>
		<path fill="#FFFFFF" d="M545.8,165.1c0.5-0.6,1.2-0.9,2.1-0.9c1.4,0,2.4,0.9,2.7,2.1h-0.9c-0.3-0.9-1.1-1.4-2-1.4
			c-0.6,0-1.1,0.3-1.5,0.6c-0.3,0.5-0.6,0.9-0.6,1.5s0.3,1.1,0.6,1.5s0.9,0.6,1.5,0.6c0.9,0,1.7-0.5,2-1.4h0.9
			c-0.3,1.4-1.4,2.3-2.9,2.3c-0.8,0-1.5-0.3-2.1-0.9c-0.5-0.6-0.9-1.4-0.9-2.1C544.9,166.3,545.2,165.5,545.8,165.1z"/>
		<path fill="#FFFFFF" d="M551.8,166.7h2.6v-2.6h0.9v5.9h-0.9v-2.6h-2.6v2.6h-0.9v-5.9h0.9V166.7z"/>
		<path fill="#FFFFFF" d="M555.8,170.1v-5.9h0.6l2.9,4.2v-4.2h0.9v5.9h-0.6l-2.9-4.1v4.1H555.8z"/>
		<path fill="#FFFFFF" d="M564,165.1h-1.1v4.2h1.1v0.9h-3v-0.9h1.1v-4.2h-1.1v-0.9h3V165.1z"/>
		<path fill="#FFFFFF" d="M564.9,165.1c0.5-0.6,1.2-0.9,2.1-0.9c1.4,0,2.4,0.9,2.7,2.1h-0.9c-0.3-0.9-1.1-1.4-2-1.4
			c-0.6,0-1.1,0.3-1.5,0.6c-0.3,0.5-0.6,0.9-0.6,1.5s0.3,1.1,0.6,1.5c0.3,0.5,0.9,0.6,1.5,0.6c0.9,0,1.7-0.5,2-1.4h0.9
			c-0.3,1.4-1.4,2.3-2.9,2.3c-0.8,0-1.5-0.3-2.1-0.9c-0.5-0.6-0.9-1.4-0.9-2.1C564,166.3,564.3,165.5,564.9,165.1z"/>
		<path fill="#FFFFFF" d="M573.2,168.4h-2.1c-0.3,0.6-0.5,1.2-0.8,1.8h-0.9l2.4-6.1h0.6l2.4,6.1H574L573.2,168.4z M571.4,167.5h1.5
			l-0.8-2.1L571.4,167.5z"/>
		<path fill="#FFFFFF" d="M576.1,169.3h2.7v0.9h-3.6v-5.9h0.9V169.3z"/>
		<path fill="#FFFFFF" d="M585.5,168.4h-2.1c-0.3,0.6-0.5,1.2-0.8,1.8h-0.9l2.4-6.1h0.6l2.4,6.1h-0.9L585.5,168.4z M583.7,167.5h1.5
			l-0.8-2.1L583.7,167.5z"/>
		<path fill="#FFFFFF" d="M587.6,165.1c0.5-0.6,1.2-0.9,2.1-0.9c1.4,0,2.4,0.9,2.7,2.1h-0.9c-0.3-0.9-1.1-1.4-2-1.4
			c-0.6,0-1.1,0.3-1.5,0.6c-0.3,0.5-0.6,0.9-0.6,1.5s0.3,1.1,0.6,1.5s0.9,0.6,1.5,0.6c0.9,0,1.7-0.5,2-1.4h0.9
			c-0.3,1.4-1.4,2.3-2.9,2.3c-0.8,0-1.5-0.3-2.1-0.9c-0.5-0.6-0.9-1.4-0.9-2.1C586.8,166.3,587.2,165.5,587.6,165.1z"/>
		<path fill="#FFFFFF" d="M596.1,168.4H594c-0.3,0.6-0.5,1.2-0.8,1.8h-0.9l2.4-6.1h0.6l2.4,6.1h-0.9L596.1,168.4z M594.3,167.5h1.5
			l-0.8-2.1L594.3,167.5z"/>
		<path fill="#FFFFFF" d="M600.2,164.2c2,0,2.9,1.5,2.9,3s-0.9,3-2.9,3h-2.1v-5.9h2.1V164.2z M600.2,169.3c1.4,0,2.1-1.1,2.1-2.1
			s-0.8-2.1-2.1-2.1H599v4.2H600.2z"/>
		<path fill="#FFFFFF" d="M604.4,169.3h2.7v0.9h-3.6v-5.9h3.6v0.9h-2.7v1.5h2.7v0.9h-2.7V169.3z"/>
		<path fill="#FFFFFF" d="M608.7,170.1h-0.9v-5.9h0.8l2,2.9l2-2.9h0.6v5.9h-0.9v-4.2l-1.5,2.3h-0.5l-1.5-2.3V170.1z"/>
		<path fill="#FFFFFF" d="M613.4,164.2l1.7,2.6l1.7-2.6h1.1l-2.3,3.5v2.4h-0.9v-2.4l-2.3-3.5H613.4z"/>
	</g>
	<g>
		<g>
			<path fill="#010101" d="M451.7,129.5c2.9-0.6,6.1-0.3,7.6,0.2c0,0,16.2-0.3,18.2-0.2c1.7,0.2,31.4,0,31.4,0l-0.3,1.8
				c0,0,5.3-3.9,12.9-2.3l1.4,0.3l-1.8,3.8l-24.1,1.2l-26.1-0.5l-19.1-3V129.5z"/>
			<path fill="#010101" d="M507.8,132.3c0.2-0.8,0.2-1.7,0.3-2.4c-13.2,0-26.5,0-39.7,0c-2.9,0-5.8,0-8.6,0.2
				c-0.9,0.2-1.8-0.3-2.7-0.5c-3.6-0.6-7.6,0.6-10.3,3.2c-3,2.7-4.1,7.6-2.4,11.4c-0.5,0-1.1,0-1.5,0c-0.6,4.7-1.1,9.4-1.7,14.2
				c1.4,0.2,2.7,0.2,4.1,0.2c0,0.2,0,0.3,0,0.5c-1.2,0-2.6,0-3.8,0c-0.3-0.2-0.6-0.3-0.8-0.5c0.6-4.8,1.1-9.5,1.7-14.4
				c0.2-0.6,0.9-0.5,1.2-0.5c-1.1-2.9-0.6-6.2,0.9-8.8c0.8-1.4,2.1-2.6,3.3-3.6c1.2-0.9,1.1-0.9,4.1-2
				C451.4,129.5,511.1,130.1,507.8,132.3z"/>
			<path fill="#14110F" d="M579,129c0.2,1.2-0.2,2.6-0.3,3.8c-0.3,2.6-0.6,5.2-0.9,7.6c0,0.3-0.3,0.5-0.6,0.8
				c0.5,1.8,0.8,3.5,1.2,5.3c0.9,0,1.7,0,2.6,0c0.3,0.2,0.5,0.3,0.8,0.5c-0.5,3.8-0.9,7.4-1.2,11.2c0,0.2-0.2,0.5-0.3,0.5
				c-14.7,0-29.4,0-44.1,0.2c-1.8,0-3.8,0-5.6,0c-0.2-0.5-0.2-0.9,0-1.2c0.6-3.6,1.2-7.1,1.8-10.8c0.8-0.3,1.7-0.2,2.4-0.2
				c0-0.2,0-0.3,0-0.3c-0.9,0-1.7,0-2.6,0c-1.5,2.9-2.7,6.1-4.8,8.3c-3.9,3.8-9.7,5.3-15,4.2c-4.8-1.1-9.2-4.5-10.8-9.2
				c-0.3-0.8-0.5-1.4-0.6-2.1c-1.8,3.6-3.8,7.1-5.6,10.8c-0.2,0.3-0.3,0.8-0.8,0.8c-3.2,0-6.5,0-9.7,0c-0.6,0-1.2,0.2-1.7-0.3
				c-0.2,0.2-0.3,0.3-0.5,0.3c-4.1,0-8.3,0-12.4,0c-0.5,0-0.5-0.5-0.6-0.9c-0.8-4.1-1.5-8-2.3-12.1c0.2,2.1,0,4.4-1.1,6.4
				c-0.8,1.5-1.8,2.9-3,4.1c-1.4,1.1-2.9,1.8-4.5,2.3c-1.4,0.5-2.7,0.6-4.1,0.5c-1.1,0-2.1-0.5-3.2-0.3c-2.1,0-4.2,0-6.4,0
				c0-0.2,0-0.3,0-0.5c2.3,0,4.7,0,7,0c2.3,0.3,4.5,0.5,6.8-0.2c3.6-1.1,6.5-4.1,7.6-7.7c0.6-2.4,0.5-5-0.6-7.3c0.3,0,0.6,0,1.1,0
				c0-0.3,0.2-0.5,0.2-0.8c1.2,5.3,2,10.8,3.2,16.2c4.1,0,8.2,0,12.3,0c0.2-0.3,0.3-0.8,0.5-1.1c0.3,0.3,0.5,0.8,0.8,1.1
				c3.6,0,7.3,0,10.9,0c1.8-3.3,3.5-6.7,5.3-9.8c0.5-0.9,0.9-1.8,1.4-2.7c0.3,1.8,0.6,3.5,1.4,5.2c1.5,3.2,4.5,5.6,7.9,6.8
				c3.8,1.4,8.2,0.9,11.8-0.6c2.3-1.1,4.5-2.6,5.9-4.7c1.4-2.1,2.4-4.5,3.6-7c1.2,0,2.4,0,3.5,0c-0.2,0.5-0.2,0.9-0.3,1.4
				c-0.8,0-1.5,0-2.4,0c-0.6,3.8-1.2,7.4-1.8,11.2c16.4,0,32.7,0,49.1,0c0.5-3.8,0.8-7.4,1.2-11.2c-1.1,0-2.1,0-3.2,0
				c-0.5-2.1-1.1-4.1-1.4-6.2c0.3-0.2,0.8-0.3,0.6-0.6c0.5-3.5,0.8-7.1,1.2-10.6c-19.1,0-38,0.2-57.1,0c0.5-0.2,0.9-0.5,1.5-0.5
				c2.6,0,13.3-0.2,15.3-0.2C539.1,129.2,575.6,128.8,579,129z"/>
			<path fill="#494541" d="M466.7,143.7c0.5,0,0.6,0.8,0.5,1.1C466.8,144.8,466.5,144,466.7,143.7L466.7,143.7z"/>
		</g>
		<path fill="#C1A167" d="M507.8,132.3c3.3-2.3,7.3-3.5,11.4-3.2c0.8,0,1.5,0.3,2.4,0.5c18.9,0,38,0,57.1,0
			c-0.3,3.5-0.8,7.1-1.2,10.6c0,0.5-0.3,0.6-0.6,0.6c0.3,2.1,0.9,4.1,1.4,6.2c1.1,0,2.1,0,3.2,0c-0.5,3.8-0.8,7.4-1.2,11.2
			c-16.4,0-32.7,0-49.1,0c0.6-3.8,1.2-7.4,1.8-11.2c0.8,0,1.5,0,2.4,0c0.2-0.5,0.2-0.9,0.3-1.4c-1.2,0-2.4,0-3.5,0
			c-1.2,2.3-2.1,4.7-3.6,7c-1.4,2.1-3.6,3.6-5.9,4.7c-3.8,1.5-8,1.8-11.8,0.6c-3.3-1.2-6.4-3.6-7.9-6.8c-0.9-1.5-1.2-3.3-1.4-5.2
			c-0.5,0.9-0.9,1.8-1.4,2.7c-1.8,3.3-3.5,6.7-5.3,9.8c-3.6,0-7.3,0-10.9,0c-0.3-0.3-0.5-0.8-0.8-1.1c-0.2,0.3-0.3,0.8-0.5,1.1
			c-4.1,0-8.2,0-12.3,0c-1.1-5.3-2-10.8-3.2-16.2c0,0.3-0.2,0.5-0.2,0.8c-0.3,0-0.6,0-1.1,0c1.1,2.3,1.4,4.8,0.6,7.3
			c-0.9,3.6-3.9,6.7-7.6,7.7c-2.3,0.8-4.5,0.6-6.8,0.2c-2.3,0-4.7,0-7,0c-1.4,0-2.7,0.2-4.1-0.2c0.6-4.7,1.1-9.4,1.7-14.2
			c0.5,0,1.1,0,1.5,0c-1.7-3.8-0.6-8.5,2.4-11.4c2.7-2.6,6.7-3.8,10.3-3.2c0.9,0.2,1.8,0.8,2.7,0.5c2.9-0.2,5.8-0.2,8.6-0.2
			c13.2,0,26.5,0,39.7,0C507.9,130.7,507.9,131.4,507.8,132.3L507.8,132.3z"/>
		<path fill="#040404" d="M511.4,131.9c3.2-1.4,7.1-1.8,10.5-0.6c0.3-0.5,0.9-0.3,1.4-0.3c2.7,0,5.5,0,8.2,0c0,0.5,0,0.8-0.2,1.2
			c-0.5,3.6-0.8,7.1-1.1,10.8c0.5-3,1.1-5.9,1.5-8.8c0.2-1.1,0.5-2.1,0.6-3.2c8,0,16.2,0,24.2,0c-0.6,4.2-1.5,8.3-2.3,12.6
			c-2.3,0-4.5,0-7,0c-0.3,1.7-0.6,3.3-0.8,5c0.8,0,1.7,0,2.4,0c-0.5,2.7-0.9,5.6-1.4,8.3c-5,0-10.2,0-15.2,0
			c0.5-2.7,0.9-5.6,1.4-8.3c0.8,0,1.5,0,2.3,0c0.5-1.7,0.6-3.3,0.8-5c-2.1,0-4.2,0-6.2,0c-3.2-0.2-6.4,0-9.5-0.2
			c-0.3-1.1-0.5-2.3-1.5-3c-0.6-0.5-1.4-0.8-2-0.5c-0.8,0.6-1.1,1.8-1.5,2.7c-0.5,1.8-0.8,3.8,0,5.6c0.9-0.2,1.8-0.2,2.4-0.8
			c0.9-1.1,1.7-2.1,2.4-3.3c2.9,0.9,5.8,2,8.6,3c-0.6,1.4-1.5,2.7-2.1,4.2c-1.2,2.6-3.8,4.1-6.2,5.2c-4.1,1.5-8.8,1.5-12.6-0.8
			c-2.9-1.8-5-4.7-5.8-8c-0.6-2.7-0.2-5.5,0.9-8c-0.5,0-0.8,0-0.9,0.5c-3,5.8-6.1,11.5-9.1,17.1c-3,0-6.2,0-9.2,0
			c-0.5-1.4-0.8-2.7-1.2-4.1c-0.6,1.4-1.1,2.7-1.7,4.1c-3.3,0-6.8,0-10.2,0c-1.2-5.9-2.1-11.7-3.3-17.6c-0.8,0-1.4,0-2.1,0
			c-0.2,0.8-0.2,1.4-0.3,2.1c-0.8,0.2-1.7,0.2-2.4,0.2c1.4,1.5,2.3,3.6,2.3,5.8c0,5-4.2,9.4-9.2,9.7c-1.4,0-2.7,0.2-3.9-0.3
			c-0.5-0.2-1.1-0.5-1.4,0.2c-2.7,0-5.5-0.2-8.3,0c0.3-4.2,0.9-8,1.2-11.8c1.1,0,2.1,0,3,0c-1.1-1.1-2-2.4-2.1-4.1
			c-0.5-3,0.8-6.2,3.2-8.2s5.6-2.9,8.6-2.3c0.8,0.2,1.4,0.5,2.1,0.6c0.6-0.2,1.1-0.3,1.7-0.3c15.3,0,30.6,0,45.9-0.2
			c-0.2,1.7-0.5,3.2-0.6,4.8C507.5,134.3,509.3,132.8,511.4,131.9L511.4,131.9z"/>
		<path fill="#040404" d="M557.9,131c6.4,0,12.7,0,18.9,0c-0.2,2.7-0.6,5.6-0.9,8.3c-0.5,0-0.8,0-1.2,0c0.6,3,1.4,6.1,2,9.2
			c0.9,0,1.8,0,2.7,0c-0.3,2.7-0.6,5.6-0.9,8.3c-9.7,0-19.5,0-29.2,0c0.3-2.7,0.6-5.6,0.9-8.3c1.1,0,2.1,0,3.2,0
			c1.5-3,2.7-6.2,4.2-9.2c-0.2,0-0.6,0-0.8,0C557.3,136.4,557.6,133.7,557.9,131L557.9,131z"/>
		<path fill="#B19E7B" d="M531.2,132.2c0.2,0.6,0.3,1.4,0.5,2c-0.5,3-1.1,5.9-1.5,8.8C530.5,139.3,530.8,135.7,531.2,132.2
			L531.2,132.2z"/>
		<path fill="#955624" d="M506.2,139c2-3.3,5.6-5.8,9.5-6.4c1.8-0.2,3.6-0.3,5.5,0.5c0.9,0.3,1.7,1.1,2.6,1.5c0-0.5,0.2-1.1,0.2-1.5
			c1.7-0.3,3.5-0.3,5.2,0c0,1.8-0.3,3.5-0.5,5.3c0,0.9-0.2,2-0.3,2.9c0,0-0.2,0.2-0.3,0.2c-1.8,0-3.5,0-5.3,0
			c-0.5-1.1-0.9-2.1-2-2.7c-1.2-0.9-3-1.4-4.4-0.5c-1.2,0.9-1.8,2.4-2.3,3.8c-0.5,1.7-0.8,3.5-0.5,5.3c0.2,1.1,0.6,2.1,1.7,2.6
			c2.1,0.6,4.5-0.5,5.6-2.4c0.3-0.5,0.6-1.2,1.2-1.1c1.4,0.5,2.7,1.1,4.2,1.5c0,0.3-0.2,0.8-0.3,1.1c-0.6,1.2-1.2,2.6-2.3,3.3
			c-2.3,1.8-5.3,2.9-8.2,2.9c-2.9,0.2-5.9-0.8-7.9-2.9c-1.5-1.4-2.6-3.3-2.9-5.3c0-1.2,0.2-2.4-0.2-3.6c0,1.1,0.2,2.1-0.2,3.2
			C504.3,144,504.9,141.3,506.2,139L506.2,139z"/>
		<path fill="#955624" d="M447.8,136.7c1.8-3.2,5.9-4.5,9.4-3.6c1.1,0.3,2,1.1,2.7,1.8c0-0.5,0.2-1.1,0.3-1.5c1.4,0,2.9,0,4.2,0
			c0,2.1-0.3,4.4-0.6,6.5c-1.5,0-3,0-4.5,0c-0.5-0.9-0.9-2-1.7-2.4c-1.1-0.8-2.9-0.8-3.5,0.5c-0.2,0.9,0.2,2,0.9,2.6
			c0.5,0.3,1.1,0.3,1.5,0.5c1.8,0.5,3.6,0.8,5,2.1c1.4,1.1,2.1,2.9,2,4.7c0,1.5-0.5,2.9-1.2,4.1c-1.2,1.8-3.3,3.2-5.6,3.5
			c-1.5,0-3,0.2-4.4-0.5c-1.1-0.5-2-1.2-2.7-2.1c-0.3,0.8-0.2,1.5-0.2,2.3c-1.4,0-2.9,0-4.2,0c0.3-2.4,0.6-4.8,0.8-7.4
			c1.5,0,3,0,4.5,0c0.9,0.8,1.1,2,2.1,2.6c0.8,0.5,1.8,0.9,2.6,0.3c0.6-0.3,0.9-0.9,0.8-1.5c0-1.1-0.9-1.8-1.7-2.3
			c-1.1-0.5-2.3-0.6-3.3-1.1c-1.5-0.8-2.9-1.8-3.5-3.3C446.7,140.4,446.8,138.4,447.8,136.7L447.8,136.7z"/>
		<path fill="#955624" d="M533.8,133.1c2-0.5,3.9,0,5.9-0.2c1.8,0.2,3.6,0,5.3,0c1.4,0.2,2.6-0.2,3.9,0c0.9,0.2,1.7-0.2,2.6,0
			c0.8,0,1.7,0.2,2.4,0.2c-0.6,2.7-1.1,5.6-1.5,8.3c-1.2,0-2.4,0-3.8,0c0-1.4,0.5-2.7,0.6-4.2c-1.1,0-2,0-3,0
			c-0.5,2.6-0.9,5.2-1.2,7.7c-0.3,2-0.8,3.8-0.9,5.6c0.8,0,1.5,0,2.3,0c0,1.4-0.5,2.7-0.6,4.2c-3.6,0-7.3,0-10.9,0
			c0-1.4,0.5-2.7,0.6-4.2c0.9,0,1.7-0.2,2.4-0.2c0.8-4.4,1.5-8.8,2.1-13.2c-0.9,0-2,0-2.9,0c-0.5,1.4-0.8,2.7-1.1,4.1
			c-1.4,0.2-2.6,0.2-3.9,0C532.9,138.7,533.5,135.8,533.8,133.1L533.8,133.1z"/>
		<path fill="#955624" d="M559.7,132.9c1.2,0,2.4-0.2,3.5,0c0.8,0.2,1.5-0.2,2.3,0c1.1,0.2,2-0.2,3,0c1.1,0.2,2.1,0.2,3.2,0
			c0.9,0,2,0.2,2.9,0.2c-0.2,1.4-0.3,2.7-0.3,4.1c-0.6,0-1.2,0-1.8,0c0.6,3.2,1.4,6.2,2.1,9.4c0.3,1.2,0.5,2.4,0.9,3.6
			c0.6,0.3,1.4,0.2,2.1,0.3c-0.2,1.4-0.3,2.9-0.6,4.2c-3.5,0-6.8,0-10.3,0c0-1.4,0.3-2.7,0.3-4.2c0.8,0,1.4-0.2,2.1-0.2
			c-0.2-1.1-0.3-2-0.6-3c-2.1,0-4.4,0-6.5,0c-0.5,1.1-0.8,2-1.4,3c0.8,0,1.4,0.2,2.1,0.2c-0.3,1.4-0.3,2.7-0.5,4.1
			c-2.9,0-5.8,0-8.6,0c-0.6,0-1.1,0-1.7,0c0.2-1.4,0.3-2.7,0.5-4.1c0.9-0.3,1.8-0.2,2.9-0.2c1.8-4.4,3.9-8.8,5.8-13.2
			c-0.5,0-1.1,0-1.5,0C559.3,135.8,559.6,134.5,559.7,132.9L559.7,132.9z"/>
		<path fill="#955624" d="M468.5,133.4c3.5,0,7,0,10.6,0c-0.2,1.4-0.3,2.9-0.6,4.2c-0.8,0-1.5,0-2.3,0c0.9,3,1.4,6.2,2.4,9.2h0.3
			c1.4-2.7,2.7-5.6,4.1-8.3c0.2-0.3,0.2-0.6,0.3-0.9c-0.8,0-1.4,0-2.1,0c0-1.4,0.3-2.9,0.5-4.2c3,0,6.1,0,9.1,0
			c-0.2,1.4-0.3,2.9-0.5,4.2c-0.8,0-1.4,0-2.1,0c0,0.3,0,0.8,0.2,1.1c0.6,2.7,1.4,5.5,2,8.2c0,0.3,0.2,0.5,0.3,0.6
			c1.7-3.3,3.3-6.5,4.8-9.8c-0.8,0-1.7,0-2.4,0c0-1.4,0.2-2.9,0.5-4.2c3.5,0,7,0,10.6,0c-0.2,1.4-0.3,2.9-0.5,4.2
			c-0.6,0-1.2,0-1.8,0c-0.3,0.3-0.5,0.6-0.8,1.1c-2.9,5.5-5.9,10.9-8.6,16.5c-2.3,0-4.4,0-6.7,0c-0.6-2.4-1.2-4.8-1.8-7.3
			c-0.2-0.5-0.3-0.8-0.5-1.2c-1.1,2.9-2.3,5.6-3.5,8.5c-2.4,0-4.7,0-7.1,0c-1.1-5.9-2.1-11.7-3.3-17.6c-0.6,0-1.2,0-1.7,0
			C468.1,136.1,468.2,134.8,468.5,133.4L468.5,133.4z"/>
		<path fill="#070606" d="M564.6,141.1c0.6-1.2,1.1-2.4,1.7-3.6c0.6,2.3,1.1,4.5,1.5,7c-1.5,0-3,0-4.5,0
			C563.5,143.2,564.1,142.3,564.6,141.1L564.6,141.1z"/>
	</g>
	<g>
		<path fill="#BF9F63" d="M592,137.9l-3.6,1.2l1.1,0.9c0,0-3.6,2.7-3.3,4.4l1.2-0.5c0,0-2.1,3.8,1.7,10.9l0.5-1.8c0,0,3.2,5,4.4,5.3
			l0.8-3.3l4.2-5.3v-2.9l-4.1-7.6L592,137.9z"/>
		<path fill="#B3B3B3" d="M607.8,144.8l6.2,2.6l-0.2,1.8c0,0-1.1,2.1-5,0.8c-4.1-1.4-8-2.3-10.6,1.4l-3,4.1c0,0-0.8-1.1-0.6-1.8
			c0-0.8,0.2-0.5,0.2-0.5s-0.2-1.8,1.1-3.2c0,0-0.5,1.8-0.3,2.1c0,0,2.3-2.1,2.6-2.3c0,0-2,0.8-2.1,0.9c0,0,0.2-1.1,0.9-1.5
			c0,0-1.7,0.2-2.3,1.7c0,0-0.2-1.4,2.3-2.9l-0.6-1.5l0.6-1.1l3.8-1.7l3.5-0.3L607.8,144.8"/>
		<path fill="#955624" d="M600,145.2c0,0,3.3,0.5,3.9,0.2c-0.2,0-1.7,1.2-3.2,1.4c2,0.2,4.5,0.2,6.2-0.6c0,0,0,0.3-0.5,1.1
			c0,0,1.1-0.2,1.5-0.8c0,0,0,0.9-0.9,1.1c0,0,1.1,0.2,1.7-0.3c0,0,0,0.6-0.5,0.8c0,0,0.8,0.2,2-0.5c0,0-0.2,0.6-0.8,0.8
			c0,0,1.1,0.3,2.1-0.3c0,0,0.8,0.3,1.4,0.6l0.3-1.1h0.6l0.2-0.5l-5.2-3.9l-0.2-2.6l-4.2-3.2L602,136l-3.5-1.2l-3.5,7.1l-0.3,1.2
			l0.6,1.2l0.8,1.1l0.6,0.3l1.7-0.5l1.1-0.3L600,145.2z"/>
		<path fill="#955624" d="M589.7,142.9c0,0,1.8-2.1,4.8-2l-2.7-3.3l-2.9,1.1l-1.1,0.8l0.9,0.5v0.5c0,0-2.4,2.4-2.4,3.5l0.6,0.3
			c0,0-1.5,4.1,2,10.9l0.5-2.4l-0.3-1.4c0,0,0.5-5.2,1.4-6.4c0,0-1.7,1.7-2,2.6l-0.5,1.5l-0.3-0.6v-1.2l0.3-1.5l0.9-1.8L589.7,142.9
			z"/>
		<path fill="#BF9F63" d="M597.8,134.2l0.9,1.1v0.9l-0.5,1.1l-1.5,2.7l-1.7,2l-0.8-1.2l-1.2-0.5l-0.9-1.4l-1.8-7.9
			c0,0-0.3-2.1,1.4-2l3.8,3L597.8,134.2z"/>
		<polygon fill="#BF9F63" points="601.7,135.2 598.7,130.7 596.8,128.2 596.2,128.5 595.5,129.8 595.6,131.4 595.9,132.3 
			597.5,133.8 598.8,135.1 600.6,135.5 601.5,135.8 		"/>
		<path fill="#BF9F63" d="M599.9,137.5c0,0,0.2-0.3,0.2-0.6c0,0,0,0.5-1.5,1.7c0,0,0.8-1.1,0.9-1.8l-0.5,0.5c0,0,0.5-1.2,0.2-1.7
			l-0.3-0.2l-0.3,0.6v1.1l-0.6,1.1l-0.9,1.7v0.2l0.6-0.5l0.9-0.8l0.8-0.8l0.3-0.5H599.9z"/>
		<path fill="#BF9F63" d="M606.1,140.5c0,0,0.8,0.9,0.5,2.1c0,0,0.3-0.8,0.3-1.1c0.2,0.3,0,2.6,0.3,2.7c0,0-0.8,0.3-0.9,0.3
			l-1.5,0.3l0.3-0.5c0,0-1.5,0-1.7,0c-0.2,0,0.2-0.5,0.2-0.5l-1.1-0.3l0.5-0.5c0,0-1.2-0.5-1.5-1.1c0,0-0.3,0-0.6-0.5
			c0,0,0-0.2,1.8-1.1c0,0-3.2,1.2-3.3,1.4c0,0,2.6-2.6,4.4-2.7l1.4,0.2l0.6,0.5l0.5,0.5L606.1,140.5z"/>
		<path fill="#955624" d="M594.4,143.4c0,0-2.7,0.6-3.9,2.6c0,0,0.8-3,2.9-2.9c0,0-2.6-0.3-3.9,2.1c0,0,0.5-2.6,4.2-4.1l0.8-0.2
			l0.5,0.6v0.6L594.4,143.4z"/>
		<path fill="#010101" d="M602.6,135.8c0,0,4.4,3,4.7,3.2c0.2,0,2.1,0.6,1.7,2.7c0,1.2,0,1.2,2.9,3c1.8,1.2,2.6,2.3,2.6,2.3
			s1.4,0.9,0.5,1.8c-0.9,0.9-1.7,2-2.4,2c-0.8,0.2-2.1,0.3-3.5-0.5c-1.4-0.9-3.6-1.2-5.2-1.2c-1.5,0.2-7,1.1-8.2,7.7
			c0,0-0.6-0.9-0.8-1.4c0,0-0.6,4.1-0.5,4.4c-1.7-1.4-4.5-4.2-4.8-6.1c0,0.9,0,2.7,0,2.7l0,0c0,0-5-6.4-2.9-12.1
			c0,0-1.1,0.8-1.4,1.1c0,0,0.2-3.8,2.9-5.6c-1.4-0.2-2,0.3-2,0.3c1.1-1.2,3-2.7,4.7-2.9c-0.5-2-1.4-4.7-1.2-6.5
			c0.2-1.8-0.2-3.9,3.8-1.5c1.7,1.5,4.7,5,5.5,5.3s1.8,0.8,1.8,0.8l0.5,0.6c0,0-1.4-0.6-2.9-0.5c-2-2.1-6.2-7-7.3-6.2
			c-1.2,0.8,0.9,6.8,0.9,7.6c0,0,0.3,0.9,0.3,1.1c0,0.2-2,0.2-3.5,1.2c0.9,0,2.1,0.6,2.1,0.6s-2.7,0.6-4.1,3.5c0,0,0.8-0.6,1.5-0.5
			c0,0-3.3,3,0.5,10.8c0,0,0-2,0.3-2.7c0,0,2.3,4.7,4.4,6.5c0.2-1.8,0.6-3.9,1.1-4.5c0,0,0.2,1.4,0.6,1.7c2.1-4.4,5.3-7.6,10.9-6.2
			c2.6,1.1,4.2,2.4,7,1.1l0.2-0.2c0,0-0.3-0.5,0.2-0.9c0,0,0-0.8-0.8-0.2c-0.8-0.6-0.5-1.2,0.5-1.4c-1.8-1.7-4.1-3.2-4.4-3.3
			c0,0-0.8-0.8-0.8-1.1c0-0.3,0.2-1.8-0.8-2.1c-0.5-0.9-1.4-2-5.2-2.6c0.8-0.3,1.7-0.3,1.7-0.3s-1.7-1.4-3.5-1.2
			C601.2,136.1,602.6,135.8,602.6,135.8z"/>
		<path fill="#010101" d="M602.6,135.8c0,0-2.6-3.3-3-4.2s-2.3-5-3.6-3.8c-0.9,1.5-0.9,3.2-0.9,3.2l0.9,0.9c0,0,0-2.6,0.6-3
			c0.6-0.5,3.3,5,3.3,5l1.1,1.7l0.5,0.6l0.2,0.2l1.1-0.2L602.6,135.8L602.6,135.8z"/>
		<path fill="#010101" d="M611.8,146.4L611.8,146.4c-0.2,0.3-0.5,0.8-0.5,0.8c-0.2,0-1.4,0.2-1.4,0.2"/>
		<path fill="#010101" d="M610.9,146c0,0-2,0.8-2.4,1.1c0,0,0.3-0.9,0.8-1.4c0,0-1.2,0.3-1.5,0.6c0,0,0.5-0.9,1.5-1.4
			c0,0-0.5,0.3-0.5,0.6c0,0,0.6-0.2,1.2-0.2c0,0-0.8,0.6-0.8,0.9C610.2,146.1,610.9,146,610.9,146z"/>
		<path fill="#010101" d="M606.1,140.5c0,0-0.5-0.9-0.9-1.1c-0.5,0-1.4-0.3-1.8-0.2c0,0,1.4,0.3,1.7,0.6c0,0-0.8,0-0.9,0.2
			C604.3,140.1,605.9,140.2,606.1,140.5z"/>
		<path fill="#010101" d="M606.7,144.3c0,0-1.5,0.6-2.6,0.6c0,0,0.8-0.5,0.8-0.6c-1.1,0.3-2.4-0.2-2.6-0.2c0.6-0.2,0.9-0.5,0.9-0.5
			s-0.8-0.2-1.5-0.6h1.1c0,0-0.8,0.2-1.4-1.2c0,0,1.5,1.1,2.4,0.9c0,0-0.8,0.3-0.9,0.5c0,0,1.2,0.5,1.5,0.2c0,0-0.5,0.3-0.8,0.5
			c0.9,0.2,2-0.2,2-0.2c-0.3,0.5-0.6,0.6-0.6,0.6H606.7z"/>
		<path fill="#010101" d="M602,147.8c0,0-2.9-0.5-3.6,0c0,0,0.5-0.9,1.4-1.1c-1.8-0.3-2.7,0.3-2.7,0.3l-2.3-4.4c0,0,1.1-1.7,2.4-2.6
			c1.4-0.9,2.4-2.3,2.6-2.7c-1.4,1.4-2.6,2.1-2.7,2.3c0,0,2.1-2.9,1.8-4.1l-0.2-0.5l-0.2,0.3v0.3c0,0,0,1.4-1.5,3.3
			c0,0-0.6-0.8-0.6-1.4v-0.8l0.6,0.6c0,0-0.8-1.2-0.8-1.5v-1.1l0.9,0.9c0,0-3.6-5.5-5.3-5.5c-0.6,0.2-0.6,2.1,0.8,5
			c0,0.8,0,1.4,1.7,2.9c0,0-1.2-0.5-1.4-0.8c0,0-0.2,2,2.6,2.4c0,0,0.6,0.3,0.5,0.6l-0.8,0.8c0,0-0.2-0.6-1.1-0.8
			c-0.9-0.2-1.7-1.5-1.8-2.3l-0.3-0.3l-0.2,0.2c0,0,0.3,2.4,2.1,2.6c0,0,0.9,0.6,0.6,1.2l-0.6,0.8l2.9,5.3c0,0,0.9-0.5,1.2-0.5
			c0,0-0.9,1.1-1.1,1.1C597,148.5,600.9,147.8,602,147.8z"/>
		<path fill="#010101" d="M595.5,144.5c0,0,2.9-0.9,3.8-2.6c-1.4,0.9-4.1,1.8-4.1,1.8L595.5,144.5z"/>
		<path fill="#010101" d="M596.5,146.4c0,0,2.3-1.2,3.5-1.2c0,0-1.4-0.5-3.9,0.3L596.5,146.4z"/>
		<path fill="#010101" d="M597.9,149.9c0,0-2.4,1.8-2.7,3.5c0,0-0.6-1.7,0.5-3.3c0,0-0.3,1.4-0.2,1.7
			C596.7,150.5,597.9,149.9,597.9,149.9z"/>
		<path fill="#010101" d="M589.9,142.9c0,0-2.1,2.1-1.8,5.5c0,0,0.3-1.1,0.6-1.5c0,0-0.9,3-0.3,4.7
			C587.2,149.2,586.8,144.9,589.9,142.9z"/>
		<path fill="#010101" d="M605.9,141.4c0,0,0.6,0.2,0.5,1.1c0,0,0.6,1.4,0,1.2c-0.6-0.2-0.5-0.6-0.5-0.6s-1.2,0.8-1.8-0.9
			c0,0-2.4-0.3-2.7-0.2C601.2,142,605.3,141.4,605.9,141.4z"/>
		<path fill="#E9C27D" d="M605.6,141.7c0,0,1.1,0.5,0,1.2C604.9,143.4,603.7,141.7,605.6,141.7z"/>
		<path fill="#010101" d="M605.9,141.7c0,0-0.2,1.4-0.8,0.9c-0.2-0.5,0-0.6,0.3-1.1L605.9,141.7z"/>
		<path fill="#010101" d="M598.4,137.9l1.1-1.4l-1.1,0.8V137.9z"/>
		<path fill="#010101" d="M593.2,148.8c0,0-1.1,3.5-0.2,7.6c-2.6-4.7-2-7.9-1.1-10.6c0,0-0.6,4.1,0.2,6.7
			C592.2,152.6,592.5,150.1,593.2,148.8z"/>
	</g>
</g>
</svg>
